<mxfile host="65bd71144e">
    <diagram id="YsBjg5qG5A0AT4yXsbUc" name="Page-1">
        <mxGraphModel dx="531" dy="470" grid="1" gridSize="10" guides="1" tooltips="1" connect="1" arrows="1" fold="1" page="1" pageScale="1" pageWidth="850" pageHeight="1100" math="0" shadow="0">
            <root>
                <mxCell id="0"/>
                <mxCell id="1" parent="0"/>
                <mxCell id="15" style="edgeStyle=none;html=1;exitX=0.5;exitY=0.5;exitDx=0;exitDy=0;exitPerimeter=0;entryX=0;entryY=0.5;entryDx=0;entryDy=0;fontSize=7;" edge="1" parent="1" source="16" target="21">
                    <mxGeometry relative="1" as="geometry"/>
                </mxCell>
                <mxCell id="16" value="Amazon Amplify" style="shape=umlActor;verticalLabelPosition=bottom;verticalAlign=top;html=1;fillColor=none;" vertex="1" parent="1">
                    <mxGeometry x="50" y="345" width="30" height="60" as="geometry"/>
                </mxCell>
                <mxCell id="17" style="edgeStyle=none;html=1;exitX=1;exitY=0.5;exitDx=0;exitDy=0;entryX=0.5;entryY=0.5;entryDx=0;entryDy=0;entryPerimeter=0;fontSize=7;" edge="1" parent="1" source="21" target="23">
                    <mxGeometry relative="1" as="geometry"/>
                </mxCell>
                <mxCell id="18" style="edgeStyle=none;html=1;exitX=1;exitY=0.5;exitDx=0;exitDy=0;entryX=0.5;entryY=0.5;entryDx=0;entryDy=0;entryPerimeter=0;fontSize=7;" edge="1" parent="1" source="21" target="22">
                    <mxGeometry relative="1" as="geometry"/>
                </mxCell>
                <mxCell id="21" value="Amazon Lambda" style="ellipse;fontSize=7;fillColor=none;" vertex="1" parent="1">
                    <mxGeometry x="170" y="347.5" width="100" height="55" as="geometry"/>
                </mxCell>
                <mxCell id="22" value="Amazon S3 Storage&lt;br&gt;" style="shape=umlActor;verticalLabelPosition=bottom;verticalAlign=top;html=1;fillColor=none;" vertex="1" parent="1">
                    <mxGeometry x="380" y="280" width="30" height="60" as="geometry"/>
                </mxCell>
                <mxCell id="23" value="Amazon Amplify" style="shape=umlActor;verticalLabelPosition=bottom;verticalAlign=top;html=1;fillColor=none;" vertex="1" parent="1">
                    <mxGeometry x="380" y="400" width="30" height="60" as="geometry"/>
                </mxCell>
                <mxCell id="25" value="Merge Video and Audio Component" style="ellipse;fontSize=6;fillColor=none;" vertex="1" parent="1">
                    <mxGeometry x="170" y="480" width="100" height="55" as="geometry"/>
                </mxCell>
                <mxCell id="26" style="edgeStyle=none;html=1;exitX=0.5;exitY=1;exitDx=0;exitDy=0;entryX=0.5;entryY=0;entryDx=0;entryDy=0;dashed=1;endArrow=openThin;endFill=0;" edge="1" parent="1" source="21" target="25">
                    <mxGeometry relative="1" as="geometry">
                        <mxPoint x="247.3246609406712" y="419.9954364826309" as="sourcePoint"/>
                        <mxPoint x="192.68" y="475.54999999999995" as="targetPoint"/>
                    </mxGeometry>
                </mxCell>
                <mxCell id="27" value="&lt;font style=&quot;font-size: 8px&quot;&gt;&amp;lt;&amp;lt;Includes&amp;gt;&amp;gt;&lt;/font&gt;" style="edgeLabel;html=1;align=center;verticalAlign=middle;resizable=0;points=[];labelBackgroundColor=none;" vertex="1" connectable="0" parent="26">
                    <mxGeometry x="0.1537" relative="1" as="geometry">
                        <mxPoint as="offset"/>
                    </mxGeometry>
                </mxCell>
                <mxCell id="31" style="edgeStyle=none;html=1;exitX=0.5;exitY=0.5;exitDx=0;exitDy=0;exitPerimeter=0;entryX=0;entryY=0.5;entryDx=0;entryDy=0;fontSize=7;" edge="1" parent="1" source="32" target="35">
                    <mxGeometry relative="1" as="geometry"/>
                </mxCell>
                <mxCell id="32" value="Amazon Amplify" style="shape=umlActor;verticalLabelPosition=bottom;verticalAlign=top;html=1;fillColor=none;" vertex="1" parent="1">
                    <mxGeometry x="40" y="100" width="30" height="60" as="geometry"/>
                </mxCell>
                <mxCell id="33" style="edgeStyle=none;html=1;exitX=1;exitY=0.5;exitDx=0;exitDy=0;entryX=0.5;entryY=0.5;entryDx=0;entryDy=0;entryPerimeter=0;fontSize=7;" edge="1" parent="1" source="35" target="36">
                    <mxGeometry relative="1" as="geometry"/>
                </mxCell>
                <mxCell id="34" style="edgeStyle=none;html=1;exitX=1;exitY=0.5;exitDx=0;exitDy=0;entryX=0.5;entryY=0.5;entryDx=0;entryDy=0;entryPerimeter=0;fontSize=7;" edge="1" parent="1" source="35" target="37">
                    <mxGeometry relative="1" as="geometry"/>
                </mxCell>
                <mxCell id="35" value="Amazon Lambda" style="ellipse;fontSize=7;fillColor=none;" vertex="1" parent="1">
                    <mxGeometry x="150" y="102.5" width="100" height="55" as="geometry"/>
                </mxCell>
                <mxCell id="36" value="Amazon S3 Storage&lt;br&gt;" style="shape=umlActor;verticalLabelPosition=bottom;verticalAlign=top;html=1;fillColor=none;" vertex="1" parent="1">
                    <mxGeometry x="370" y="30" width="30" height="60" as="geometry"/>
                </mxCell>
                <mxCell id="37" value="Amazon Amplify" style="shape=umlActor;verticalLabelPosition=bottom;verticalAlign=top;html=1;fillColor=none;" vertex="1" parent="1">
                    <mxGeometry x="370" y="140" width="30" height="60" as="geometry"/>
                </mxCell>
                <mxCell id="38" value="Merge Video and Audio Component" style="html=1;align=center;verticalAlign=top;rounded=1;absoluteArcSize=1;arcSize=10;dashed=0;fontSize=7;glass=0;opacity=60;strokeColor=#FFFFFF;fillColor=none;" vertex="1" parent="1">
                    <mxGeometry x="125" y="45" width="150" height="170" as="geometry"/>
                </mxCell>
                <mxCell id="39" style="edgeStyle=none;html=1;exitX=0.5;exitY=0.5;exitDx=0;exitDy=0;exitPerimeter=0;entryX=0;entryY=0.5;entryDx=0;entryDy=0;fontSize=7;" edge="1" parent="1" source="40" target="43">
                    <mxGeometry relative="1" as="geometry"/>
                </mxCell>
                <mxCell id="40" value="Amazon Amplify" style="shape=umlActor;verticalLabelPosition=bottom;verticalAlign=top;html=1;fillColor=none;" vertex="1" parent="1">
                    <mxGeometry x="50" y="625" width="30" height="60" as="geometry"/>
                </mxCell>
                <mxCell id="41" style="edgeStyle=none;html=1;exitX=1;exitY=0.5;exitDx=0;exitDy=0;entryX=0.5;entryY=0.5;entryDx=0;entryDy=0;entryPerimeter=0;fontSize=7;" edge="1" parent="1" source="43" target="45">
                    <mxGeometry relative="1" as="geometry"/>
                </mxCell>
                <mxCell id="42" style="edgeStyle=none;html=1;exitX=1;exitY=0.5;exitDx=0;exitDy=0;entryX=0.5;entryY=0.5;entryDx=0;entryDy=0;entryPerimeter=0;fontSize=7;" edge="1" parent="1" source="43" target="44">
                    <mxGeometry relative="1" as="geometry"/>
                </mxCell>
                <mxCell id="43" value="Merge Video and Audio Component" style="ellipse;fontSize=6;fillColor=none;" vertex="1" parent="1">
                    <mxGeometry x="170" y="627.5" width="100" height="55" as="geometry"/>
                </mxCell>
                <mxCell id="44" value="Amazon S3 Storage&lt;br&gt;" style="shape=umlActor;verticalLabelPosition=bottom;verticalAlign=top;html=1;fillColor=none;" vertex="1" parent="1">
                    <mxGeometry x="380" y="560" width="30" height="60" as="geometry"/>
                </mxCell>
                <mxCell id="45" value="Amazon Amplify" style="shape=umlActor;verticalLabelPosition=bottom;verticalAlign=top;html=1;fillColor=none;" vertex="1" parent="1">
                    <mxGeometry x="380" y="680" width="30" height="60" as="geometry"/>
                </mxCell>
                <mxCell id="46" value="Retrieve Video Recording" style="ellipse;fontSize=7;fillColor=none;" vertex="1" parent="1">
                    <mxGeometry x="5" y="730" width="100" height="55" as="geometry"/>
                </mxCell>
                <mxCell id="47" style="edgeStyle=none;html=1;exitX=0.5;exitY=1;exitDx=0;exitDy=0;entryX=0.5;entryY=0;entryDx=0;entryDy=0;dashed=1;endArrow=openThin;endFill=0;" edge="1" parent="1" source="43" target="46">
                    <mxGeometry relative="1" as="geometry">
                        <mxPoint x="247.3246609406712" y="699.9954364826309" as="sourcePoint"/>
                        <mxPoint x="192.68" y="755.55" as="targetPoint"/>
                    </mxGeometry>
                </mxCell>
                <mxCell id="48" value="&lt;font style=&quot;font-size: 8px&quot;&gt;&amp;lt;&amp;lt;Includes&amp;gt;&amp;gt;&lt;/font&gt;" style="edgeLabel;html=1;align=center;verticalAlign=middle;resizable=0;points=[];labelBackgroundColor=none;" vertex="1" connectable="0" parent="47">
                    <mxGeometry x="0.1537" relative="1" as="geometry">
                        <mxPoint as="offset"/>
                    </mxGeometry>
                </mxCell>
                <mxCell id="50" value="Retrieve Audio Recording" style="ellipse;fontSize=7;fillColor=none;" vertex="1" parent="1">
                    <mxGeometry x="50" y="795" width="100" height="55" as="geometry"/>
                </mxCell>
                <mxCell id="51" style="edgeStyle=none;html=1;entryX=0.5;entryY=0;entryDx=0;entryDy=0;dashed=1;endArrow=openThin;endFill=0;exitX=0.5;exitY=1;exitDx=0;exitDy=0;" edge="1" parent="1" target="50" source="43">
                    <mxGeometry relative="1" as="geometry">
                        <mxPoint x="220" y="690" as="sourcePoint"/>
                        <mxPoint x="297.68" y="773.05" as="targetPoint"/>
                    </mxGeometry>
                </mxCell>
                <mxCell id="52" value="&lt;font style=&quot;font-size: 8px&quot;&gt;&amp;lt;&amp;lt;Includes&amp;gt;&amp;gt;&lt;/font&gt;" style="edgeLabel;html=1;align=center;verticalAlign=middle;resizable=0;points=[];labelBackgroundColor=none;" vertex="1" connectable="0" parent="51">
                    <mxGeometry x="0.1537" relative="1" as="geometry">
                        <mxPoint as="offset"/>
                    </mxGeometry>
                </mxCell>
                <mxCell id="53" value="Merge Audio and Video Recordings " style="ellipse;fontSize=6;fillColor=none;" vertex="1" parent="1">
                    <mxGeometry x="140" y="850" width="100" height="55" as="geometry"/>
                </mxCell>
                <mxCell id="54" style="edgeStyle=none;html=1;exitX=0.5;exitY=1;exitDx=0;exitDy=0;entryX=0.5;entryY=0;entryDx=0;entryDy=0;dashed=1;endArrow=openThin;endFill=0;" edge="1" parent="1" target="53" source="43">
                    <mxGeometry relative="1" as="geometry">
                        <mxPoint x="240" y="678.75" as="sourcePoint"/>
                        <mxPoint x="257.68" y="756.8" as="targetPoint"/>
                    </mxGeometry>
                </mxCell>
                <mxCell id="55" value="&lt;font style=&quot;font-size: 8px&quot;&gt;&amp;lt;&amp;lt;Includes&amp;gt;&amp;gt;&lt;/font&gt;" style="edgeLabel;html=1;align=center;verticalAlign=middle;resizable=0;points=[];labelBackgroundColor=none;" vertex="1" connectable="0" parent="54">
                    <mxGeometry x="0.1537" relative="1" as="geometry">
                        <mxPoint as="offset"/>
                    </mxGeometry>
                </mxCell>
                <mxCell id="56" value="Store merged recoring" style="ellipse;fontSize=7;fillColor=none;" vertex="1" parent="1">
                    <mxGeometry x="250" y="840" width="100" height="55" as="geometry"/>
                </mxCell>
                <mxCell id="57" style="edgeStyle=none;html=1;exitX=0.5;exitY=1;exitDx=0;exitDy=0;entryX=0.5;entryY=0;entryDx=0;entryDy=0;dashed=1;endArrow=openThin;endFill=0;" edge="1" parent="1" target="56" source="43">
                    <mxGeometry relative="1" as="geometry">
                        <mxPoint x="250" y="712.5" as="sourcePoint"/>
                        <mxPoint x="222.68" y="785.55" as="targetPoint"/>
                    </mxGeometry>
                </mxCell>
                <mxCell id="58" value="&lt;font style=&quot;font-size: 8px&quot;&gt;&amp;lt;&amp;lt;Includes&amp;gt;&amp;gt;&lt;/font&gt;" style="edgeLabel;html=1;align=center;verticalAlign=middle;resizable=0;points=[];labelBackgroundColor=none;" vertex="1" connectable="0" parent="57">
                    <mxGeometry x="0.1537" relative="1" as="geometry">
                        <mxPoint as="offset"/>
                    </mxGeometry>
                </mxCell>
                <mxCell id="59" value="Gather storage route" style="ellipse;fontSize=7;fillColor=none;" vertex="1" parent="1">
                    <mxGeometry x="320" y="785" width="100" height="55" as="geometry"/>
                </mxCell>
                <mxCell id="60" style="edgeStyle=none;html=1;exitX=0.5;exitY=1;exitDx=0;exitDy=0;entryX=0.5;entryY=0;entryDx=0;entryDy=0;dashed=1;endArrow=openThin;endFill=0;" edge="1" parent="1" target="59" source="43">
                    <mxGeometry relative="1" as="geometry">
                        <mxPoint x="405" y="697.5" as="sourcePoint"/>
                        <mxPoint x="377.68" y="770.55" as="targetPoint"/>
                    </mxGeometry>
                </mxCell>
                <mxCell id="61" value="&lt;font style=&quot;font-size: 8px&quot;&gt;&amp;lt;&amp;lt;Includes&amp;gt;&amp;gt;&lt;/font&gt;" style="edgeLabel;html=1;align=center;verticalAlign=middle;resizable=0;points=[];labelBackgroundColor=none;" vertex="1" connectable="0" parent="60">
                    <mxGeometry x="0.1537" relative="1" as="geometry">
                        <mxPoint as="offset"/>
                    </mxGeometry>
                </mxCell>
            </root>
        </mxGraphModel>
    </diagram>
</mxfile>